<?xml version="1.0" standalone="no"?>
<!DOCTYPE svg PUBLIC "-//W3C//DTD SVG 20010904//EN"
 "http://www.w3.org/TR/2001/REC-SVG-20010904/DTD/svg10.dtd">
<svg version="1.0" xmlns="http://www.w3.org/2000/svg"
 width="404.000000pt" height="114.000000pt" viewBox="0 0 404.000000 114.000000"
 preserveAspectRatio="xMidYMid meet">

<g transform="translate(0.000000,114.000000) scale(0.100000,-0.100000)"
fill="rgb(221, 226, 255)" stroke="none">
<path d="M500 1084 c-203 -39 -358 -172 -421 -362 -24 -72 -31 -178 -16 -266
l9 -50 18 53 c31 93 112 172 217 211 32 12 134 33 226 46 93 13 190 29 215 36
182 45 256 145 161 216 -14 11 -16 9 -16 -14 0 -14 -6 -36 -13 -49 -16 -29
-90 -69 -155 -84 -43 -9 -309 -42 -332 -41 -23 2 57 33 151 59 59 16 129 41
154 54 90 46 100 130 20 170 -36 18 -168 30 -218 21z"/>
<path d="M1677 863 c-8 -10 -81 -108 -161 -217 -107 -146 -146 -207 -146 -228
l0 -28 165 0 165 0 0 -70 0 -70 30 0 30 0 0 70 0 70 45 0 c43 0 45 1 45 30 0
29 -2 30 -45 30 l-45 0 0 215 0 215 -33 0 c-20 0 -41 -7 -50 -17z m23 -243 l0
-170 -125 0 c-69 0 -125 2 -125 5 0 7 241 335 246 335 2 0 4 -76 4 -170z"/>
<path d="M1980 566 l0 -316 35 0 35 0 0 105 0 105 123 0 c208 1 241 30 242
212 0 93 -3 110 -21 135 -44 59 -73 68 -251 72 l-163 3 0 -316z m341 225 c28
-28 29 -33 29 -124 0 -87 -2 -96 -25 -119 -31 -32 -62 -38 -181 -38 l-94 0 0
155 0 155 121 0 c120 0 121 0 150 -29z"/>
<path d="M2581 573 c-61 -170 -111 -311 -111 -315 0 -5 15 -8 33 -8 32 0 33 2
58 78 l25 77 140 3 140 3 25 -78 c25 -77 25 -78 62 -81 20 -2 37 -1 37 2 0 7
-195 546 -214 591 -13 30 -20 35 -49 35 l-34 0 -112 -307z m207 59 c28 -87 52
-161 52 -165 0 -4 -51 -6 -112 -5 -105 3 -113 4 -110 22 6 35 104 306 111 306
3 0 30 -71 59 -158z"/>
<path d="M3178 868 c-107 -28 -144 -197 -61 -274 27 -25 45 -31 177 -60 104
-22 126 -43 126 -118 0 -44 -5 -61 -24 -83 l-24 -28 -156 -3 -156 -3 0 -25 0
-24 163 0 c143 0 166 2 194 20 53 32 68 65 68 146 0 116 -35 147 -206 184
-121 26 -139 41 -139 114 0 44 4 57 26 77 24 22 35 24 162 29 l137 5 3 28 3
27 -128 -1 c-70 -1 -145 -6 -165 -11z"/>
<path d="M3698 868 c-109 -29 -143 -191 -59 -272 24 -23 52 -34 138 -53 142
-31 157 -43 161 -120 2 -53 0 -65 -22 -89 l-24 -29 -156 -3 -156 -3 0 -25 0
-24 163 0 c177 0 205 8 243 65 25 39 29 142 7 184 -28 53 -60 70 -178 97 -135
30 -155 46 -155 119 0 42 5 56 26 76 24 22 35 24 162 29 l137 5 3 28 3 27
-128 -1 c-70 -1 -145 -6 -165 -11z"/>
<path d="M1005 814 c-42 -64 -122 -120 -221 -154 -32 -12 -131 -32 -219 -46
-88 -13 -188 -33 -221 -44 -178 -60 -236 -224 -132 -377 16 -24 38 -48 49 -54
20 -10 20 -10 4 21 -26 50 -30 123 -11 174 38 98 115 142 318 181 76 14 167
35 204 46 36 11 68 18 71 16 7 -8 -107 -72 -167 -94 -30 -11 -89 -33 -130 -48
-163 -62 -228 -186 -165 -319 10 -21 32 -47 48 -57 46 -28 146 -34 240 -16
254 50 427 258 427 512 0 90 -18 172 -53 241 l-23 46 -19 -28z"/>
</g>
</svg>
